<svg width="1163" height="92" viewBox="0 0 1163 92" fill="none" xmlns="http://www.w3.org/2000/svg">
<path d="M539.619 20H537.419V7.62H532.739V5.64H544.299V7.62H539.619V20ZM547.303 14.58V20H545.283V9.4H547.163V11.64C547.903 10.18 549.503 9.26 551.243 9.26V11.36C548.963 11.24 547.303 12.24 547.303 14.58ZM559.461 15.64V9.4H561.481V20H559.601V18.32C559.041 19.42 557.801 20.2 556.361 20.2C554.221 20.2 552.741 18.94 552.741 16.22V9.4H554.761V15.82C554.761 17.66 555.681 18.42 557.001 18.42C558.361 18.42 559.461 17.3 559.461 15.64ZM572.687 16.84C572.687 18.92 571.067 20.2 568.247 20.2C565.447 20.2 563.787 18.82 563.587 16.54H565.527C565.607 17.86 566.667 18.68 568.287 18.68C569.707 18.68 570.647 18.18 570.647 17.18C570.647 16.3 570.107 15.92 568.787 15.66L567.067 15.34C565.107 14.96 564.007 13.96 564.007 12.36C564.007 10.5 565.627 9.2 568.087 9.2C570.627 9.2 572.347 10.56 572.527 12.74H570.587C570.467 11.46 569.527 10.72 568.107 10.72C566.827 10.72 565.967 11.26 565.967 12.18C565.967 13.04 566.507 13.44 567.787 13.68L569.587 14.02C571.687 14.4 572.687 15.32 572.687 16.84ZM580.736 18.04V19.82C580.116 20.1 579.576 20.2 578.936 20.2C576.976 20.2 575.616 19.14 575.616 16.8V11.12H573.276V9.4H575.616V6.26H577.636V9.4H580.836V11.12H577.636V16.34C577.636 17.8 578.336 18.32 579.416 18.32C579.896 18.32 580.316 18.24 580.736 18.04ZM586.83 20.2C583.77 20.2 581.71 17.98 581.71 14.64C581.71 11.5 583.85 9.2 586.77 9.2C589.93 9.2 592.03 11.76 591.67 15.2H583.77C583.93 17.36 585.01 18.62 586.79 18.62C588.29 18.62 589.33 17.8 589.67 16.42H591.67C591.15 18.78 589.33 20.2 586.83 20.2ZM586.73 10.72C585.11 10.72 584.01 11.88 583.79 13.86H589.53C589.43 11.9 588.37 10.72 586.73 10.72ZM592.863 14.7C592.863 11.48 594.703 9.2 597.563 9.2C598.983 9.2 600.223 9.92 600.963 11.22V5.64H602.983V20H601.103V18.1C600.343 19.44 599.063 20.2 597.563 20.2C594.703 20.2 592.863 17.88 592.863 14.7ZM594.963 14.7C594.963 17.06 596.203 18.4 597.963 18.4C599.683 18.4 600.963 17 600.963 14.66C600.963 12.28 599.643 10.98 597.963 10.98C596.203 10.98 594.963 12.3 594.963 14.7ZM620.09 14.7C620.09 17.88 618.25 20.2 615.39 20.2C613.89 20.2 612.61 19.44 611.85 18.1V20H609.97V5.64H611.99V11.22C612.73 9.92 613.95 9.2 615.39 9.2C618.23 9.2 620.09 11.48 620.09 14.7ZM617.99 14.7C617.99 12.3 616.73 10.98 614.99 10.98C613.31 10.98 611.99 12.28 611.99 14.66C611.99 17 613.27 18.4 614.99 18.4C616.73 18.4 617.99 17.06 617.99 14.7ZM630.606 9.4L625.306 23.86H623.106L624.626 19.86L620.446 9.4H622.626L625.706 17.48L628.566 9.4H630.606Z" fill="#C5C5C5"/>
<g clip-path="url(#clip0_407_297)">
<path d="M54.0637 60.5051H37.5655H38.2174V65.0029H43.7722V84.3572H48.4749V65.0029H54.0637V60.5051Z" fill="#666D80"/>
<path d="M58.5618 70.2504V67.32H54.1659V84.3572H58.5618V76.2134C58.5618 72.6356 61.4584 71.6133 63.7416 71.8859V66.9792C61.5949 66.9792 59.4479 67.9333 58.5618 70.2504Z" fill="#666D80"/>
<path d="M68.4449 65.2755C69.9441 65.2755 71.1712 64.0488 71.1712 62.5836C71.1712 61.1184 69.9441 59.8577 68.4449 59.8577C66.9794 59.8577 65.7526 61.1184 65.7526 62.5836C65.7526 64.0488 66.9794 65.2755 68.4449 65.2755ZM66.2638 84.3571H70.66V67.3199H66.2638V84.3571Z" fill="#666D80"/>
<path d="M87.3584 67.32V69.4326C86.1657 67.8311 84.3256 66.843 81.9058 66.843C77.0669 66.843 73.4203 70.7956 73.4203 75.566C73.4203 80.3705 77.0669 84.2891 81.9058 84.2891C84.3256 84.2891 86.1657 83.3009 87.3584 81.6994V83.5394C87.3584 86.2312 85.6545 87.7304 82.8942 87.7304C80.27 87.7304 79.1457 86.6743 78.4299 85.3453L74.6815 87.492C76.1807 90.2521 79.1114 91.6489 82.7579 91.6489C87.2563 91.6489 91.6521 89.1275 91.6521 83.5394V67.32H87.3584ZM82.5876 80.2342C79.8272 80.2342 77.8165 78.2919 77.8165 75.566C77.8165 72.8741 79.8272 70.9319 82.5876 70.9319C85.3477 70.9319 87.3584 72.8741 87.3584 75.566C87.3584 78.2919 85.3477 80.2342 82.5876 80.2342Z" fill="#666D80"/>
<path d="M108.317 67.32V69.4326C107.124 67.8311 105.284 66.843 102.864 66.843C98.0252 66.843 94.3787 70.7956 94.3787 75.566C94.3787 80.3705 98.0252 84.2891 102.864 84.2891C105.284 84.2891 107.124 83.3009 108.317 81.6994V83.5394C108.317 86.2312 106.613 87.7304 103.853 87.7304C101.228 87.7304 100.104 86.6743 99.3883 85.3453L95.6396 87.492C97.1391 90.2521 100.07 91.6489 103.716 91.6489C108.214 91.6489 112.611 89.1275 112.611 83.5394V67.32H108.317ZM103.546 80.2342C100.785 80.2342 98.7749 78.2919 98.7749 75.566C98.7749 72.8741 100.785 70.9319 103.546 70.9319C106.306 70.9319 108.317 72.8741 108.317 75.566C108.317 78.2919 106.306 80.2342 103.546 80.2342Z" fill="#666D80"/>
<path d="M119.938 77.6445H132.785C132.887 77.0653 132.955 76.486 132.955 75.8386C132.955 70.8297 129.377 66.843 124.334 66.843C118.983 66.843 115.337 70.7615 115.337 75.8386C115.337 80.9157 118.949 84.8341 124.674 84.8341C127.946 84.8341 130.502 83.5053 132.103 81.1882L128.559 79.1438C127.81 80.1319 126.446 80.8475 124.743 80.8475C122.425 80.8475 120.551 79.8934 119.938 77.6445ZM119.869 74.2371C120.381 72.0564 121.982 70.7956 124.334 70.7956C126.174 70.7956 128.014 71.7838 128.559 74.2371H119.869Z" fill="#666D80"/>
<path d="M139.959 70.2504V67.32H135.563V84.3572H139.959V76.2134C139.959 72.6356 142.856 71.6133 145.139 71.8859V66.9792C142.992 66.9792 140.845 67.9333 139.959 70.2504Z" fill="#666D80"/>
<path d="M146.809 84.7999C148.41 84.7999 149.705 83.5051 149.705 81.9036C149.705 80.3021 148.41 79.0073 146.809 79.0073C145.207 79.0073 143.912 80.3021 143.912 81.9036C143.912 83.5051 145.207 84.7999 146.809 84.7999Z" fill="#666D80"/>
<path d="M165.279 60.5051V69.3303C164.052 67.7629 162.246 66.8429 159.758 66.8429C155.192 66.8429 151.443 70.7615 151.443 75.8385C151.443 80.9156 155.192 84.834 159.758 84.834C162.246 84.834 164.052 83.9141 165.279 82.3467V84.3572H169.675V60.5051H165.279ZM160.576 80.643C157.85 80.643 155.839 78.7008 155.839 75.8385C155.839 72.9763 157.85 71.034 160.576 71.034C163.268 71.034 165.279 72.9763 165.279 75.8385C165.279 78.7008 163.268 80.643 160.576 80.643Z" fill="#666D80"/>
<path d="M176.729 77.6445H189.576C189.678 77.0653 189.747 76.486 189.747 75.8386C189.747 70.8297 186.168 66.843 181.125 66.843C175.775 66.843 172.128 70.7615 172.128 75.8386C172.128 80.9157 175.741 84.8341 181.466 84.8341C184.737 84.8341 187.293 83.5053 188.895 81.1882L185.351 79.1438C184.601 80.1319 183.238 80.8475 181.534 80.8475C179.217 80.8475 177.342 79.8934 176.729 77.6445ZM176.661 74.2371C177.172 72.0564 178.774 70.7956 181.125 70.7956C182.965 70.7956 184.805 71.7838 185.351 74.2371H176.661Z" fill="#666D80"/>
<path d="M203.003 67.3201L198.846 79.246L194.722 67.3201H189.883L196.358 84.3573H201.367L207.842 67.3201H203.003Z" fill="#666D80"/>
<path fill-rule="evenodd" clip-rule="evenodd" d="M9.93384 67.7404L16.51 56.3516L32.8077 84.577H0.212402L6.7886 73.1879L11.4405 75.8734L9.51651 79.2056H23.5035L16.51 67.0941L14.5861 70.4263L9.93384 67.7404Z" fill="#666D80"/>
</g>
<g clip-path="url(#clip1_407_297)">
<path d="M268.85 75.5973C268.637 75.8106 268.384 75.9798 268.105 76.0951C267.827 76.2104 267.528 76.2696 267.227 76.2694H261.744C261.288 76.2681 260.851 76.086 260.529 75.7628C260.207 75.4397 260.026 75.0018 260.027 74.5456V57.7173C260.028 57.2623 260.209 56.8262 260.531 56.5044C260.853 56.1827 261.289 56.0014 261.744 56.0002H271.796C272.251 56.0014 272.687 56.1827 273.008 56.5044C273.33 56.8262 273.512 57.2623 273.513 57.7173V69.9857C273.512 70.5927 273.272 71.1749 272.843 71.6046L270.844 73.601L268.85 75.5973Z" fill="#666D80"/>
<path d="M276.172 64.8235C275.959 64.6103 275.791 64.3572 275.676 64.0786C275.561 63.8001 275.502 63.5016 275.502 63.2002V57.7173C275.504 57.2623 275.685 56.8262 276.007 56.5044C276.328 56.1827 276.764 56.0014 277.22 56.0002H294.063C294.519 56.0002 294.955 56.1812 295.277 56.5032C295.599 56.8252 295.78 57.2619 295.78 57.7173V67.769C295.78 67.9944 295.736 68.2177 295.65 68.4261C295.563 68.6344 295.437 68.8237 295.277 68.9831C295.118 69.1426 294.929 69.2691 294.72 69.3553C294.512 69.4416 294.289 69.4861 294.063 69.4861H281.786C281.485 69.4864 281.187 69.4273 280.909 69.3125C280.631 69.1975 280.378 69.0289 280.165 68.8162L278.169 66.8199L276.172 64.8235Z" fill="#666D80"/>
<path d="M286.948 72.2482C287.378 71.8185 287.96 71.5767 288.567 71.5762H294.063C294.519 71.5767 294.955 71.7579 295.278 72.0796C295.6 72.4015 295.781 72.8379 295.783 73.2933V90.1261C295.782 90.5818 295.601 91.0188 295.278 91.3411C294.956 91.6634 294.519 91.8447 294.063 91.8453H284.003C283.547 91.8447 283.11 91.6634 282.788 91.3411C282.466 91.0188 282.284 90.5818 282.284 90.1261V77.8577C282.284 77.2503 282.526 76.6679 282.956 76.2387L284.952 74.2424L286.948 72.2482Z" fill="#666D80"/>
<path d="M279.624 83.0222C280.054 83.4514 280.295 84.0337 280.296 84.6411V90.1284C280.295 90.5845 280.113 91.0216 279.789 91.3436C279.466 91.6654 279.028 91.846 278.572 91.8454H261.744C261.289 91.8442 260.853 91.663 260.531 91.3412C260.209 91.0195 260.028 90.5834 260.027 90.1284V80.0767C260.027 79.6213 260.208 79.1846 260.53 78.8625C260.852 78.5405 261.289 78.3596 261.744 78.3596H274.012C274.313 78.3592 274.611 78.4182 274.889 78.5331C275.166 78.6481 275.419 78.8167 275.631 79.0294L277.628 81.0258L279.624 83.0222Z" fill="#666D80"/>
<path d="M352.477 82.9783H352.466C352.235 83.1463 352.03 83.2815 351.884 83.382C351.759 83.4612 351.63 83.534 351.497 83.6001C351.408 83.6479 351.31 83.6797 351.209 83.694C351.103 83.7067 350.996 83.7125 350.889 83.7114C350.683 83.7258 350.479 83.6728 350.306 83.5606C350.133 83.4485 350.001 83.2831 349.931 83.0896C349.759 82.6729 349.673 81.8852 349.673 80.7485V75.4576C349.688 74.7275 349.639 73.9974 349.527 73.2758C349.432 72.7765 349.249 72.298 348.988 71.862C348.116 70.4831 346.416 69.7849 343.916 69.7849C342.083 69.7849 340.61 70.0969 339.552 70.71C338.494 71.323 337.937 72.1826 337.937 73.2626C337.927 73.5129 337.966 73.7627 338.053 73.9976C338.14 74.2325 338.273 74.4477 338.444 74.6306C338.61 74.8025 338.811 74.9376 339.033 75.0274C339.255 75.1172 339.494 75.1597 339.733 75.1522C339.983 75.1623 340.233 75.123 340.467 75.0365C340.702 74.95 340.917 74.818 341.101 74.6482C341.273 74.4812 341.408 74.2803 341.498 74.0583C341.587 73.8364 341.63 73.598 341.623 73.3587C341.63 73.1533 341.596 72.9484 341.521 72.7568C341.447 72.5651 341.334 72.3905 341.191 72.2437C341.072 72.132 340.959 72.014 340.852 71.8903C340.823 71.8563 340.807 71.8129 340.807 71.7682C340.811 71.6966 340.833 71.6271 340.868 71.5648C340.904 71.5024 340.953 71.4489 341.012 71.4082C341.176 71.2737 341.36 71.1649 341.557 71.0852C341.807 70.9848 342.066 70.9117 342.332 70.867C342.624 70.8127 342.922 70.7857 343.22 70.7863C344.695 70.7863 345.692 71.2227 346.182 72.1063C346.287 72.2912 346.374 72.4855 346.442 72.6866C346.513 72.9127 346.567 73.1439 346.604 73.3783C346.645 73.6467 346.678 73.974 346.7 74.382C346.721 74.7899 346.743 75.2939 346.763 75.8416L343.734 76.3892L342.504 76.5834C341.887 76.6947 341.378 76.8015 340.951 76.8911C340.564 76.9744 340.185 77.0883 339.816 77.2314C339.518 77.3476 339.231 77.4885 338.956 77.6525C338.701 77.8092 338.457 77.9827 338.225 78.1718C337.449 78.8853 337.056 79.8889 337.056 81.1609C337.056 82.518 337.455 83.6045 338.243 84.39C339.031 85.1754 340.121 85.5746 341.483 85.5746C342.438 85.5863 343.382 85.3614 344.23 84.9201C345.189 84.3639 346.046 83.6473 346.763 82.8016C346.837 83.1497 346.932 83.4929 347.049 83.8292C347.142 84.0612 347.263 84.2809 347.409 84.4837C347.624 84.7861 347.909 85.0323 348.24 85.2016C348.558 85.3692 348.911 85.4583 349.27 85.4612C349.868 85.4574 350.455 85.3004 350.976 85.0053C351.67 84.5932 352.308 84.0922 352.872 83.5151L352.477 82.987V82.9783ZM346.804 76.8693V79.3761C346.804 80.4888 346.632 81.3398 346.289 81.9267C345.959 82.4947 345.478 82.9606 344.9 83.2729C344.319 83.5996 343.664 83.7716 342.997 83.7725C342.609 83.7899 342.221 83.7275 341.859 83.589C341.496 83.4505 341.165 83.2389 340.887 82.9674C340.619 82.6784 340.41 82.3387 340.275 81.9681C340.139 81.5976 340.079 81.2037 340.097 80.8096C340.097 79.3979 340.752 78.4336 342.031 77.9405C342.609 77.7229 343.203 77.5522 343.809 77.43C344.553 77.2685 345.554 77.0786 346.796 76.867L346.804 76.8693Z" fill="#666D80"/>
<path d="M363.637 83.2076H363.624C363.185 83.382 362.737 83.5327 362.282 83.6593C361.972 83.7433 361.652 83.7873 361.331 83.7901C360.53 83.7901 359.921 83.5479 359.522 83.0724C359.123 82.5967 358.918 81.8702 358.918 80.9145V71.7749H363.417V70.7123H358.918V64.6992H358.22L356.112 66.8069V70.7123H352.451V71.7749H356.108V82.0294C356.108 83.2076 356.38 84.1022 356.919 84.6912C357.458 85.2803 358.278 85.5792 359.356 85.5792C360.084 85.5759 360.807 85.4559 361.497 85.2236C362.368 84.9106 363.204 84.5084 363.993 84.0235H364.004L363.641 83.2338L363.637 83.2076Z" fill="#666D80"/>
<path d="M382.8 68.1814C383.059 68.1895 383.317 68.1445 383.557 68.0492C383.798 67.9538 384.018 67.8102 384.201 67.6272C384.473 67.358 384.659 67.0138 384.734 66.6386C384.81 66.2633 384.771 65.8741 384.624 65.5207C384.478 65.1673 384.229 64.8656 383.91 64.6544C383.59 64.4432 383.215 64.3319 382.833 64.3348C382.582 64.3327 382.332 64.3806 382.101 64.4757C381.868 64.5709 381.657 64.7114 381.48 64.889C381.295 65.0592 381.149 65.2662 381.049 65.4965C380.949 65.7268 380.898 65.9754 380.899 66.2264C380.895 66.4826 380.942 66.7371 381.037 66.975C381.132 67.2129 381.274 67.4294 381.454 67.6119C381.626 67.7955 381.835 67.9411 382.067 68.0392C382.299 68.1373 382.548 68.1856 382.8 68.1814Z" fill="#666D80"/>
<path d="M413.688 81.5864C413.293 82.0062 412.874 82.4004 412.429 82.7667C412.072 83.0587 411.681 83.3076 411.266 83.5086C410.881 83.6907 410.474 83.8213 410.056 83.8969C409.58 83.9757 409.099 84.0129 408.617 84.0082C406.798 84.0082 405.419 83.3929 404.52 82.1798C404.126 81.6246 403.846 80.9964 403.697 80.3318C403.514 79.398 403.432 78.447 403.455 77.4954H414.936V77.4803C414.914 76.5727 414.817 75.6684 414.646 74.777C414.506 74.1114 414.265 73.4713 413.932 72.8788C413.362 71.8799 412.503 71.0774 411.467 70.5769C410.316 70.0216 409.049 69.7436 407.771 69.7653C406.698 69.7494 405.631 69.9366 404.627 70.3173C403.736 70.6597 402.928 71.1904 402.259 71.8729C401.588 72.5841 401.075 73.4296 400.754 74.3537C400.383 75.3954 400.2 76.4944 400.211 77.6002C400.2 78.718 400.384 79.8291 400.754 80.8838C401.079 81.8158 401.592 82.6712 402.262 83.3973C402.925 84.0973 403.733 84.6446 404.629 85.001C405.62 85.39 406.676 85.5826 407.74 85.5682C408.383 85.5725 409.024 85.5117 409.654 85.3871C410.232 85.2665 410.794 85.0714 411.322 84.8067C411.877 84.5257 412.399 84.1847 412.878 83.79C413.435 83.3277 413.95 82.8166 414.416 82.2627V82.2518L413.694 81.5973L413.688 81.5864ZM407.668 70.7799C409.016 70.7799 410.014 71.2163 410.635 72.0759C411.257 72.9355 411.645 74.4061 411.796 76.4395H403.477C403.628 74.3973 404.029 72.9267 404.67 72.0759C405.312 71.2249 406.32 70.7799 407.668 70.7799Z" fill="#666D80"/>
<path d="M332.666 83.9078C332.403 83.8299 332.176 83.6604 332.027 83.43C331.87 83.1482 331.777 82.8355 331.754 82.5137C331.704 81.9879 331.682 81.46 331.689 80.9319V62.2751L326.042 63.6366H326.031V64.6882H326.044C326.512 64.6988 326.977 64.758 327.432 64.865C327.759 64.9401 328.056 65.1128 328.283 65.3602C328.508 65.6488 328.652 65.9923 328.7 66.3551C328.784 66.8993 328.822 67.4497 328.813 68.0002V80.9407C328.813 81.5799 328.798 82.1057 328.765 82.5071C328.753 82.8349 328.659 83.1544 328.492 83.4366C328.334 83.6656 328.104 83.8347 327.838 83.9166C327.452 84.0354 327.058 84.1272 326.66 84.1916L325.87 84.2569V85.2366H334.645V84.2417L333.857 84.174C333.455 84.1128 333.057 84.0239 332.666 83.9078Z" fill="#666D80"/>
<path d="M385.743 83.9078C385.48 83.8291 385.254 83.6598 385.104 83.43C384.948 83.1477 384.855 82.8352 384.831 82.5136C384.781 81.9879 384.759 81.4599 384.766 80.9318V69.3682L379.119 70.7165H379.108V71.7681H379.122C379.588 71.7772 380.054 71.8357 380.509 71.9427C380.836 72.0186 381.133 72.192 381.36 72.4402C381.583 72.7283 381.726 73.0711 381.772 73.4329C381.856 73.9771 381.895 74.5274 381.886 75.078V80.9318C381.886 81.571 381.871 82.0991 381.837 82.4984C381.826 82.8261 381.733 83.1456 381.565 83.4277C381.408 83.6574 381.177 83.8266 380.91 83.9078C380.524 84.0266 380.131 84.1184 379.732 84.1827L378.955 84.246H378.936V85.2365H387.703V84.2416L386.914 84.174C386.518 84.1119 386.127 84.023 385.743 83.9078Z" fill="#666D80"/>
<path d="M396.713 83.9078C396.45 83.8299 396.224 83.6604 396.074 83.43C395.917 83.1485 395.822 82.8356 395.8 82.5137C395.751 81.9878 395.73 81.4598 395.736 80.9319V62.2751L390.089 63.6366V64.6882H390.103C390.57 64.699 391.035 64.7582 391.49 64.865C391.817 64.9395 392.113 65.1123 392.339 65.3602C392.564 65.6486 392.709 65.9921 392.758 66.3551C392.841 66.8994 392.879 67.4497 392.871 68.0002V80.9407C392.871 81.5799 392.853 82.1078 392.821 82.5071C392.811 82.8351 392.717 83.1551 392.549 83.4366C392.391 83.6661 392.16 83.8353 391.894 83.9166C391.508 84.0349 391.114 84.1268 390.716 84.1916L389.939 84.2548H389.926V85.2366H398.69V84.2417L397.902 84.174C397.501 84.1128 397.104 84.0239 396.713 83.9078Z" fill="#666D80"/>
<path d="M376.734 63.5536C376.08 63.0911 375.236 62.8555 374.202 62.8555C372.653 62.8555 371.402 63.3595 370.492 64.3544C369.583 65.3493 369.118 66.7216 369.118 68.4366C369.118 68.6089 369.118 69.4599 369.133 69.7762C369.148 70.0926 369.17 70.398 369.212 70.7209H366.227V71.7748H369.17V80.9383C369.17 81.5929 369.155 82.11 369.122 82.507C369.111 82.8355 369.017 83.1559 368.849 83.4388C368.692 83.6683 368.461 83.8376 368.195 83.9187C367.81 84.0373 367.417 84.1292 367.019 84.1936L366.242 84.2569H366.229V85.2365H375.227V84.2394L374.212 84.174C373.814 84.1095 373.42 84.0176 373.034 83.8991C372.768 83.8179 372.537 83.6487 372.38 83.4191C372.212 83.1366 372.118 82.8161 372.107 82.4875C372.074 82.0926 372.059 81.5645 372.059 80.9188V71.7748H376.1V70.7122H372.044C371.712 69.7934 371.475 68.8429 371.337 67.8759C371.219 67.1445 371.235 66.398 371.383 65.6722C371.564 64.9304 371.945 64.4155 372.519 64.1449L372.582 64.1187L372.616 64.1078L372.648 64.0947L372.67 64.0838L372.746 64.062C373.005 63.9662 373.278 63.9174 373.554 63.918C373.835 63.9148 374.114 63.9698 374.374 64.0795C374.616 64.1842 374.739 64.2977 374.739 64.3915C374.739 64.4504 374.672 64.5464 374.546 64.6707C374.38 64.8316 374.248 65.0245 374.158 65.2379C374.068 65.4513 374.023 65.6807 374.024 65.9122C374.015 66.1381 374.053 66.3635 374.138 66.5731C374.223 66.7828 374.352 66.9718 374.516 67.1275C374.852 67.4367 375.298 67.6012 375.754 67.5856C376.02 67.5912 376.282 67.5387 376.524 67.4316C376.766 67.3245 376.982 67.1656 377.155 66.966C377.532 66.5336 377.73 65.9745 377.71 65.4016C377.715 65.0366 377.629 64.6762 377.458 64.3533C377.288 64.0304 377.039 63.7555 376.734 63.5536Z" fill="#666D80"/>
<path d="M307.721 63.6365V64.699L308.9 64.8299C309.772 64.915 310.37 65.1419 310.669 65.5041C310.75 65.6001 310.822 65.7022 310.887 65.8096C310.949 65.9398 310.987 66.0803 310.998 66.2241C311.02 66.4052 311.036 66.6343 311.046 66.9027C311.057 67.171 311.062 67.5353 311.062 67.9936V80.8946C311.062 81.3463 311.062 81.7107 311.046 81.9855C311.031 82.2605 311.02 82.483 310.998 82.6641C310.986 82.815 310.948 82.9627 310.885 83.1005C310.832 83.2069 310.762 83.3042 310.678 83.3885C310.379 83.7506 309.783 83.9776 308.908 84.0626L307.741 84.1936H307.73V85.2364H318.017V84.174L316.514 84.043C315.659 83.9798 315.063 83.7529 314.745 83.3688C314.661 83.2874 314.596 83.1893 314.553 83.0808C314.5 82.9397 314.462 82.7935 314.439 82.6444C314.404 82.4206 314.383 82.1947 314.376 81.9681C314.365 81.7107 314.361 81.3551 314.361 80.8772V75.8896H317.173C317.448 75.8945 317.723 75.923 317.993 75.9746C318.275 76.0306 318.539 76.1516 318.766 76.3281C318.996 76.5203 319.186 76.7552 319.326 77.0198C319.511 77.3666 319.657 77.7323 319.763 78.1107L320.025 79.0139H321.307V71.3427H320.027L319.82 72.2153C319.698 72.6215 319.548 73.0187 319.372 73.4045C319.244 73.6832 319.064 73.9345 318.84 74.1442C318.638 74.3256 318.397 74.4578 318.135 74.5303C317.941 74.5794 317.742 74.6101 317.542 74.6219H314.354V64.9848H317.889C318.755 64.9721 319.62 65.0319 320.476 65.1638C321.048 65.2376 321.59 65.4637 322.045 65.8183C322.435 66.1757 322.707 66.6428 322.826 67.1579C322.995 67.8735 323.087 68.6048 323.103 69.3397V69.3529H324.358V63.6365H307.721Z" fill="#666D80"/>
</g>
<g clip-path="url(#clip2_407_297)">
<path d="M525.563 76.9132L526.599 81.703H526.68L527.837 76.9536L531.193 63.822H535.266L529.837 83.7793H523.288L520.574 71.7647L519.574 66.9749H519.494L518.457 71.7647L515.743 83.7793H509.355L503.927 63.822H508.117L511.432 76.9132L512.589 81.6627H512.67L513.706 76.8729L516.699 63.822H522.526L525.559 76.9132H525.563Z" fill="#666D80"/>
<path d="M537.661 60.3103V56.0002H542.013V60.3103H537.661ZM537.822 83.7793H541.895V63.822H537.822V83.7793Z" fill="#666D80"/>
<path d="M546.206 63.822H550.199V67.4143C551.517 65.1403 553.473 63.4229 556.587 63.4229C560.499 63.4229 563.414 66.1363 563.414 71.0872V83.7793H559.341V71.4057C559.341 68.4506 557.744 66.8944 555.07 66.8944C552.397 66.8944 550.279 68.5312 550.279 72.4018V83.7756H546.206V63.822Z" fill="#666D80"/>
<path d="M567.366 85.1745H571.399C571.637 87.3716 573.435 88.7668 576.549 88.7668C579.981 88.7668 581.9 87.0896 581.9 83.3398V79.8684C580.465 82.3035 578.307 83.6584 575.391 83.6584C570.56 83.6584 566.81 80.0258 566.81 73.559C566.81 67.0921 570.564 63.4229 575.391 63.4229C578.307 63.4229 580.501 64.8217 581.941 67.2935V63.822H585.974V83.0981C585.974 88.7668 582.461 92.0002 576.472 92.0002C571.084 92.0002 567.769 89.3673 567.37 85.1745H567.366ZM576.468 80.2675C579.901 80.2675 581.896 77.9532 581.896 74.3609V72.7644C581.896 69.0914 579.901 66.7368 576.468 66.7368C573.037 66.7368 571 68.9706 571 73.0427V74.079C571 78.0704 573.117 80.2639 576.468 80.2639V80.2675Z" fill="#666D80"/>
<path d="M491.818 63.822C490.144 63.822 488.668 64.7009 487.433 66.4403C486.162 68.2383 485.236 70.7943 484.342 73.266C484.042 74.0936 483.741 74.9286 483.426 75.7304C483.111 74.9248 482.807 74.0899 482.507 73.2587C481.613 70.7869 480.69 68.2309 479.419 66.433C478.185 64.6972 476.709 63.8147 475.035 63.8147H467.277V66.7039C467.738 66.7039 468.456 66.8504 469.357 68.1248C470.401 69.6005 471.258 71.9661 472.086 74.262C472.866 76.4153 473.668 78.6453 474.705 80.359C476.06 82.6111 477.65 83.7024 479.562 83.7024C481.305 83.7024 482.569 82.743 483.426 81.7543C484.283 82.743 485.547 83.7024 487.29 83.7024C489.202 83.7024 490.788 82.6075 492.147 80.359C493.18 78.6453 493.986 76.4153 494.766 74.2548C495.594 71.9661 496.447 69.6005 497.491 68.1248C498.396 66.8504 499.114 66.7039 499.575 66.7039V63.811H491.818V63.822ZM479.562 80.8241C477.481 80.8241 476.031 76.8108 474.749 73.266C473.899 70.9187 473.024 68.4909 471.844 66.7149H475.031C475.493 66.7149 476.21 66.8613 477.115 68.1357C478.159 69.6115 479.016 71.9771 479.844 74.2693C480.448 75.9466 481.075 77.6712 481.807 79.1617C480.84 80.6374 480.075 80.8241 479.562 80.8241ZM492.1 73.2734C490.821 76.8144 489.371 80.8241 487.29 80.8241C486.778 80.8241 486.012 80.6374 485.045 79.1617C485.778 77.6712 486.4 75.9466 487.008 74.2657C487.836 71.9771 488.69 69.6115 489.733 68.1357C490.638 66.8613 491.356 66.7149 491.818 66.7149H495.004C493.828 68.4909 492.949 70.9187 492.1 73.2734Z" fill="#666D80"/>
</g>
<path d="M769.244 79.8453C769.244 80.828 769.011 81.6599 768.545 82.3409C768.088 83.0134 767.403 83.5263 766.489 83.8797C765.575 84.2246 764.438 84.397 763.075 84.397C762.067 84.397 761.2 84.3323 760.476 84.203C759.761 84.0737 759.037 83.8582 758.304 83.5565V80.2978C759.088 80.6513 759.929 80.9444 760.825 81.1772C761.731 81.4013 762.524 81.5134 763.205 81.5134C763.972 81.5134 764.519 81.4013 764.847 81.1772C765.183 80.9444 765.351 80.6427 765.351 80.272C765.351 80.0306 765.282 79.8151 765.144 79.6254C765.015 79.4272 764.731 79.2073 764.291 78.9659C763.851 78.7159 763.162 78.3927 762.222 77.9961C761.317 77.6168 760.571 77.2332 759.985 76.8453C759.407 76.4573 758.976 76.0004 758.692 75.4746C758.416 74.9401 758.278 74.2634 758.278 73.4444C758.278 72.1082 758.795 71.1039 759.83 70.4315C760.873 69.7504 762.265 69.4099 764.007 69.4099C764.903 69.4099 765.757 69.5004 766.567 69.6815C767.386 69.8625 768.226 70.1513 769.088 70.5478L767.899 73.3927C767.183 73.0823 766.507 72.828 765.869 72.6297C765.239 72.4315 764.597 72.3323 763.942 72.3323C763.364 72.3323 762.929 72.4099 762.636 72.5651C762.343 72.7203 762.196 72.9573 762.196 73.2763C762.196 73.5091 762.269 73.7159 762.416 73.897C762.571 74.078 762.864 74.2806 763.295 74.5047C763.735 74.7203 764.377 75.0004 765.222 75.3453C766.041 75.6815 766.752 76.0349 767.356 76.4056C767.959 76.7677 768.425 77.2203 768.752 77.7634C769.08 78.2978 769.244 78.9918 769.244 79.8453Z" fill="#666D80"/>
<path d="M755.899 76.8841C755.899 78.0909 755.735 79.1599 755.407 80.0909C755.088 81.022 754.619 81.8108 753.998 82.4573C753.386 83.0953 752.644 83.578 751.774 83.9056C750.912 84.2332 749.938 84.397 748.851 84.397C747.834 84.397 746.899 84.2332 746.045 83.9056C745.201 83.578 744.463 83.0953 743.834 82.4573C743.213 81.8108 742.731 81.022 742.386 80.0909C742.05 79.1599 741.882 78.0909 741.882 76.8841C741.882 75.2806 742.166 73.9228 742.735 72.8108C743.304 71.6987 744.114 70.8539 745.166 70.2763C746.218 69.6987 747.472 69.4099 748.929 69.4099C750.282 69.4099 751.481 69.6987 752.524 70.2763C753.576 70.8539 754.399 71.6987 754.994 72.8108C755.597 73.9228 755.899 75.2806 755.899 76.8841ZM745.903 76.8841C745.903 77.8323 746.007 78.6297 746.213 79.2763C746.42 79.9228 746.744 80.4099 747.183 80.7375C747.623 81.0651 748.196 81.2289 748.903 81.2289C749.601 81.2289 750.166 81.0651 750.597 80.7375C751.037 80.4099 751.356 79.9228 751.554 79.2763C751.761 78.6297 751.864 77.8323 751.864 76.8841C751.864 75.9272 751.761 75.1341 751.554 74.5047C751.356 73.8668 751.037 73.3884 750.597 73.0694C750.157 72.7504 749.584 72.5909 748.877 72.5909C747.834 72.5909 747.076 72.9487 746.601 73.6642C746.136 74.3797 745.903 75.453 745.903 76.8841Z" fill="#666D80"/>
<path d="M732.015 90.5004C729.998 90.5004 728.455 90.147 727.386 89.4401C726.325 88.7418 725.795 87.759 725.795 86.4918C725.795 85.6211 726.067 84.8927 726.61 84.3065C727.153 83.7203 727.95 83.3022 729.002 83.0522C728.597 82.8797 728.244 82.5996 727.942 82.2116C727.64 81.8151 727.489 81.397 727.489 80.9573C727.489 80.4056 727.649 79.9487 727.968 79.5866C728.287 79.2159 728.748 78.8539 729.351 78.5004C728.593 78.1728 727.989 77.647 727.541 76.9228C727.101 76.1987 726.881 75.3453 726.881 74.3625C726.881 73.3108 727.11 72.4185 727.567 71.6858C728.032 70.9444 728.705 70.3797 729.584 69.9918C730.472 69.6039 731.55 69.4099 732.817 69.4099C733.084 69.4099 733.394 69.4272 733.748 69.4616C734.101 69.4961 734.425 69.5349 734.718 69.578C735.019 69.6211 735.222 69.6556 735.325 69.6815H740.369V71.6858L738.106 72.2677C738.312 72.5866 738.468 72.9272 738.571 73.2892C738.675 73.6513 738.726 74.0349 738.726 74.4401C738.726 75.9918 738.183 77.203 737.097 78.0737C736.019 78.9358 734.519 79.3668 732.597 79.3668C732.14 79.3409 731.709 79.3065 731.304 79.2634C731.106 79.4185 730.955 79.5823 730.851 79.7547C730.748 79.9272 730.696 80.1082 730.696 80.2978C730.696 80.4875 730.774 80.647 730.929 80.7763C731.093 80.897 731.334 80.9918 731.653 81.0608C731.981 81.1211 732.386 81.1513 732.869 81.1513H735.325C736.912 81.1513 738.119 81.4918 738.946 82.1728C739.782 82.8539 740.2 83.8539 740.2 85.1728C740.2 86.8625 739.494 88.1728 738.08 89.1039C736.675 90.0349 734.653 90.5004 732.015 90.5004ZM732.183 87.9272C733.123 87.9272 733.929 87.8366 734.601 87.6556C735.282 87.4832 735.804 87.2332 736.166 86.9056C736.528 86.5866 736.709 86.203 736.709 85.7547C736.709 85.3927 736.601 85.1039 736.386 84.8884C736.179 84.6815 735.86 84.5349 735.429 84.4487C735.006 84.3625 734.463 84.3194 733.8 84.3194H731.756C731.274 84.3194 730.838 84.397 730.45 84.5522C730.071 84.7073 729.769 84.9228 729.545 85.1987C729.321 85.4832 729.209 85.8108 729.209 86.1815C729.209 86.7246 729.468 87.1513 729.985 87.4616C730.511 87.772 731.244 87.9272 732.183 87.9272ZM732.817 76.9616C733.558 76.9616 734.101 76.7332 734.446 76.2763C734.791 75.8194 734.963 75.1987 734.963 74.4142C734.963 73.5435 734.782 72.8927 734.42 72.4616C734.067 72.022 733.532 71.8022 732.817 71.8022C732.093 71.8022 731.55 72.022 731.187 72.4616C730.825 72.8927 730.644 73.5435 730.644 74.4142C730.644 75.1987 730.821 75.8194 731.175 76.2763C731.537 76.7332 732.084 76.9616 732.817 76.9616Z" fill="#666D80"/>
<path d="M723.636 69.6814V84.1383H719.692V69.6814H723.636ZM721.67 64.0176C722.257 64.0176 722.761 64.1555 723.183 64.4314C723.606 64.6986 723.817 65.2029 723.817 65.9443C723.817 66.6771 723.606 67.1857 723.183 67.4702C722.761 67.746 722.257 67.884 721.67 67.884C721.075 67.884 720.567 67.746 720.144 67.4702C719.731 67.1857 719.524 66.6771 719.524 65.9443C719.524 65.2029 719.731 64.6986 720.144 64.4314C720.567 64.1555 721.075 64.0176 721.67 64.0176Z" fill="#666D80"/>
<path d="M707.511 84.3969C705.899 84.3969 704.584 83.7676 703.567 82.509C702.558 81.2417 702.054 79.384 702.054 76.9357C702.054 74.4615 702.567 72.5909 703.593 71.3236C704.619 70.0478 705.959 69.4098 707.614 69.4098C708.304 69.4098 708.912 69.5046 709.438 69.6943C709.963 69.884 710.416 70.1383 710.795 70.4572C711.183 70.7762 711.511 71.134 711.778 71.5305H711.907C711.856 71.2546 711.791 70.8495 711.713 70.315C711.644 69.7719 711.61 69.2159 711.61 68.6469V64.0176H715.567V84.1383H712.541L711.778 82.2633H711.61C711.36 82.6598 711.045 83.0219 710.666 83.3495C710.295 83.6684 709.851 83.9228 709.334 84.1124C708.817 84.3021 708.209 84.3969 707.511 84.3969ZM708.894 81.2546C709.972 81.2546 710.731 80.9357 711.17 80.2978C711.619 79.6512 711.856 78.6814 711.882 77.3883V76.9615C711.882 75.5564 711.666 74.4831 711.235 73.7417C710.804 72.9917 710.002 72.6167 708.83 72.6167C707.959 72.6167 707.278 72.9917 706.787 73.7417C706.295 74.4917 706.05 75.5736 706.05 76.9874C706.05 78.4012 706.295 79.4659 706.787 80.1814C707.287 80.8969 707.989 81.2546 708.894 81.2546Z" fill="#666D80"/>
<path d="M699.325 74.6599C699.325 76.1168 699.144 77.4444 698.782 78.6427C698.42 79.8323 697.869 80.8582 697.127 81.7203C696.394 82.5823 695.463 83.2461 694.334 83.7117C693.205 84.1685 691.869 84.397 690.325 84.397C688.782 84.397 687.446 84.1685 686.317 83.7117C685.188 83.2461 684.252 82.5823 683.511 81.7203C682.778 80.8582 682.231 79.828 681.869 78.6298C681.506 77.4315 681.325 76.0996 681.325 74.6341C681.325 72.6772 681.644 70.9746 682.282 69.5263C682.929 68.0694 683.92 66.9401 685.256 66.1384C686.593 65.3367 688.291 64.9358 690.351 64.9358C692.403 64.9358 694.088 65.3367 695.407 66.1384C696.735 66.9401 697.718 68.0694 698.356 69.5263C699.002 70.9832 699.325 72.6944 699.325 74.6599ZM685.528 74.6599C685.528 75.9789 685.692 77.1168 686.019 78.0737C686.356 79.022 686.877 79.7548 687.584 80.272C688.291 80.7806 689.205 81.0349 690.325 81.0349C691.463 81.0349 692.386 80.7806 693.093 80.272C693.8 79.7548 694.313 79.022 694.631 78.0737C694.959 77.1168 695.123 75.9789 695.123 74.6599C695.123 72.6772 694.752 71.1168 694.011 69.9789C693.269 68.841 692.05 68.272 690.351 68.272C689.222 68.272 688.3 68.5306 687.584 69.0479C686.877 69.5565 686.356 70.2892 686.019 71.2461C685.692 72.1944 685.528 73.3323 685.528 74.6599Z" fill="#666D80"/>
<path d="M641.511 72.3448V61.2701C641.511 60.6548 642.158 60.2547 642.709 60.5298L664.858 71.6046C665.639 71.9951 665.361 73.1724 664.488 73.1724H642.338C641.881 73.1724 641.511 72.8019 641.511 72.3448Z" fill="#666D80"/>
<path d="M671.304 59.9313V71.4106C671.304 72.028 670.652 72.428 670.102 72.1485L647.491 60.6692C646.715 60.2751 646.995 59.1037 647.866 59.1037H670.476C670.933 59.1037 671.304 59.4742 671.304 59.9313Z" fill="#666D80"/>
<path d="M641.511 75.6557V86.7304C641.511 87.3456 642.158 87.7458 642.709 87.4706L664.858 76.3959C665.639 76.0054 665.361 74.8281 664.488 74.8281H642.338C641.881 74.8281 641.511 75.1986 641.511 75.6557Z" fill="#666D80"/>
<path d="M671.304 88.0692V76.5899C671.304 75.9725 670.652 75.5725 670.102 75.852L647.491 87.3313C646.715 87.7253 646.995 88.8968 647.866 88.8968H670.476C670.933 88.8968 671.304 88.5263 671.304 88.0692Z" fill="#666D80"/>
<path fill-rule="evenodd" clip-rule="evenodd" d="M637.994 60.3451C637.994 57.9455 639.939 56.0002 642.338 56.0002H670.476C672.876 56.0002 674.821 57.9455 674.821 60.3451V87.6554C674.821 90.055 672.876 92.0002 670.476 92.0002H642.338C639.939 92.0002 637.994 90.055 637.994 87.6554V60.3451ZM642.338 58.0692C641.082 58.0692 640.063 59.0881 640.063 60.3451V87.6554C640.063 88.9123 641.082 89.9313 642.338 89.9313H670.476C671.733 89.9313 672.752 88.9123 672.752 87.6554V60.3451C672.752 59.0881 671.733 58.0692 670.476 58.0692H642.338Z" fill="#666D80"/>
<path d="M989.127 64.3732V68.6888H977.102V64.3732H989.127ZM979.629 59.4121H985.844V77.8179C985.844 78.3466 985.906 78.7585 986.029 79.0535C986.152 79.3363 986.361 79.5392 986.656 79.6621C986.963 79.7728 987.369 79.8281 987.873 79.8281C988.23 79.8281 988.525 79.822 988.758 79.8097C988.992 79.7851 989.213 79.7544 989.422 79.7175V84.1622C988.893 84.3343 988.34 84.4634 987.762 84.5494C987.184 84.6478 986.57 84.697 985.918 84.697C984.59 84.697 983.453 84.488 982.506 84.0699C981.572 83.6519 980.859 82.9941 980.367 82.0966C979.875 81.199 979.629 80.031 979.629 78.5925V59.4121Z" fill="#666D80"/>
<path d="M974.779 64.3732V84.3282H968.545V64.3732H974.779ZM968.176 59.2277C968.176 58.3425 968.496 57.6171 969.135 57.0515C969.775 56.4859 970.605 56.2031 971.625 56.2031C972.646 56.2031 973.475 56.4859 974.115 57.0515C974.754 57.6171 975.074 58.3425 975.074 59.2277C975.074 60.113 974.754 60.8384 974.115 61.404C973.475 61.9695 972.646 62.2523 971.625 62.2523C970.605 62.2523 969.775 61.9695 969.135 61.404C968.496 60.8384 968.176 60.113 968.176 59.2277Z" fill="#666D80"/>
<path d="M950.821 57.4756V84.3281H944.348V57.4756H950.821ZM966.848 57.4756L956.446 71.0863L950.36 77.7441L949.18 71.8055L953.071 65.9039L958.862 57.4756H966.848ZM959.194 84.3281L952.26 72.2297L957.295 68.5227L966.848 84.3281H959.194Z" fill="#666D80"/>
<path d="M941.582 64.3732V68.6888H929.557V64.3732H941.582ZM932.084 59.4121H938.299V77.8179C938.299 78.3466 938.36 78.7585 938.483 79.0535C938.606 79.3363 938.815 79.5392 939.11 79.6621C939.418 79.7728 939.824 79.8281 940.328 79.8281C940.684 79.8281 940.979 79.822 941.213 79.8097C941.446 79.7851 941.668 79.7544 941.877 79.7175V84.1622C941.348 84.3343 940.795 84.4634 940.217 84.5494C939.639 84.6478 939.024 84.697 938.373 84.697C937.045 84.697 935.908 84.488 934.961 84.0699C934.026 83.6519 933.313 82.9941 932.821 82.0966C932.33 81.199 932.084 80.031 932.084 78.5925V59.4121Z" fill="#666D80"/>
<path d="M909.049 74.5536V74.1663C909.049 72.7032 909.258 71.3569 909.676 70.1274C910.094 68.8856 910.709 67.8097 911.52 66.8999C912.332 65.9901 913.334 65.2831 914.527 64.779C915.719 64.2626 917.096 64.0044 918.658 64.0044C920.231 64.0044 921.615 64.2626 922.807 64.779C924.012 65.2831 925.02 65.9901 925.832 66.8999C926.643 67.8097 927.258 68.8856 927.676 70.1274C928.094 71.3569 928.303 72.7032 928.303 74.1663V74.5536C928.303 76.0044 928.094 77.3507 927.676 78.5925C927.258 79.822 926.643 80.8979 925.832 81.82C925.02 82.7298 924.018 83.4368 922.826 83.9409C921.633 84.445 920.256 84.6971 918.695 84.6971C917.133 84.6971 915.75 84.445 914.545 83.9409C913.34 83.4368 912.332 82.7298 911.52 81.82C910.709 80.8979 910.094 79.822 909.676 78.5925C909.258 77.3507 909.049 76.0044 909.049 74.5536ZM915.264 74.1663V74.5536C915.264 75.3036 915.32 76.0044 915.43 76.6561C915.541 77.3077 915.725 77.8794 915.984 78.3712C916.242 78.8507 916.592 79.2257 917.035 79.4962C917.477 79.7667 918.031 79.902 918.695 79.902C919.346 79.902 919.887 79.7667 920.318 79.4962C920.76 79.2257 921.111 78.8507 921.369 78.3712C921.627 77.8794 921.811 77.3077 921.922 76.6561C922.033 76.0044 922.088 75.3036 922.088 74.5536V74.1663C922.088 73.4409 922.033 72.7585 921.922 72.1192C921.811 71.4675 921.627 70.8958 921.369 70.404C921.111 69.8999 920.76 69.5065 920.318 69.2237C919.875 68.9409 919.322 68.7995 918.658 68.7995C918.006 68.7995 917.459 68.9409 917.016 69.2237C916.586 69.5065 916.242 69.8999 915.984 70.404C915.725 70.8958 915.541 71.4675 915.43 72.1192C915.32 72.7585 915.264 73.4409 915.264 74.1663Z" fill="#666D80"/>
<path d="M905.988 56.0002V84.3282H899.754V56.0002H905.988Z" fill="#666D80"/>
<path d="M895.586 64.3732V84.3282H889.352V64.3732H895.586ZM888.983 59.2277C888.983 58.3425 889.303 57.6171 889.942 57.0515C890.582 56.4859 891.412 56.2031 892.432 56.2031C893.453 56.2031 894.282 56.4859 894.922 57.0515C895.561 57.6171 895.881 58.3425 895.881 59.2277C895.881 60.113 895.561 60.8384 894.922 61.404C894.282 61.9695 893.453 62.2523 892.432 62.2523C891.412 62.2523 890.582 61.9695 889.942 61.404C889.303 60.8384 888.983 60.113 888.983 59.2277Z" fill="#666D80"/>
<path d="M874.008 68.2093V92.0003H867.793V64.3732H873.584L874.008 68.2093ZM886.254 74.111V74.4983C886.254 75.9491 886.088 77.2954 885.756 78.5372C885.424 79.779 884.932 80.861 884.28 81.7831C883.629 82.7052 882.817 83.4245 881.846 83.9409C880.887 84.445 879.774 84.6971 878.508 84.6971C877.315 84.6971 876.289 84.4327 875.428 83.904C874.567 83.3753 873.848 82.6438 873.27 81.7093C872.692 80.7749 872.225 79.7052 871.869 78.5003C871.512 77.2954 871.229 76.0229 871.02 74.6827V74.1847C871.229 72.7462 871.512 71.4122 871.869 70.1827C872.225 68.9409 872.692 67.8589 873.27 66.9368C873.848 66.0146 874.561 65.2954 875.41 64.779C876.27 64.2626 877.297 64.0044 878.489 64.0044C879.756 64.0044 880.869 64.2441 881.828 64.7237C882.799 65.2032 883.61 65.8917 884.262 66.7892C884.926 67.6745 885.424 68.738 885.756 69.9798C886.088 71.2216 886.254 72.5987 886.254 74.111ZM880.039 74.4983V74.111C880.039 73.3364 879.983 72.6294 879.873 71.9901C879.762 71.3384 879.584 70.7729 879.338 70.2933C879.104 69.8138 878.791 69.445 878.397 69.1868C878.004 68.9286 877.518 68.7995 876.94 68.7995C876.276 68.7995 875.717 68.904 875.262 69.113C874.819 69.3097 874.463 69.6171 874.192 70.0351C873.934 70.4409 873.75 70.9511 873.639 71.5659C873.541 72.1683 873.498 72.8753 873.51 73.6868V75.1991C873.485 76.1335 873.578 76.9573 873.787 77.6704C873.996 78.3712 874.358 78.9184 874.875 79.3118C875.391 79.7052 876.092 79.902 876.977 79.902C877.567 79.902 878.059 79.7667 878.453 79.4962C878.846 79.2134 879.16 78.8261 879.393 78.3343C879.627 77.8302 879.793 77.2524 879.891 76.6007C879.989 75.9491 880.039 75.2483 880.039 74.4983Z" fill="#666D80"/>
<path d="M845.717 74.5536V74.1663C845.717 72.7032 845.926 71.3569 846.344 70.1274C846.762 68.8856 847.377 67.8097 848.188 66.8999C849 65.9901 850.002 65.2831 851.194 64.779C852.387 64.2626 853.764 64.0044 855.325 64.0044C856.899 64.0044 858.282 64.2626 859.475 64.779C860.68 65.2831 861.688 65.9901 862.5 66.8999C863.311 67.8097 863.926 68.8856 864.344 70.1274C864.762 71.3569 864.971 72.7032 864.971 74.1663V74.5536C864.971 76.0044 864.762 77.3507 864.344 78.5925C863.926 79.822 863.311 80.8979 862.5 81.82C861.688 82.7298 860.686 83.4368 859.494 83.9409C858.301 84.445 856.924 84.6971 855.362 84.6971C853.801 84.6971 852.418 84.445 851.213 83.9409C850.008 83.4368 849 82.7298 848.188 81.82C847.377 80.8979 846.762 79.822 846.344 78.5925C845.926 77.3507 845.717 76.0044 845.717 74.5536ZM851.932 74.1663V74.5536C851.932 75.3036 851.987 76.0044 852.098 76.6561C852.209 77.3077 852.393 77.8794 852.651 78.3712C852.909 78.8507 853.26 79.2257 853.703 79.4962C854.145 79.7667 854.698 79.902 855.362 79.902C856.014 79.902 856.555 79.7667 856.985 79.4962C857.428 79.2257 857.778 78.8507 858.037 78.3712C858.295 77.8794 858.479 77.3077 858.59 76.6561C858.7 76.0044 858.756 75.3036 858.756 74.5536V74.1663C858.756 73.4409 858.7 72.7585 858.59 72.1192C858.479 71.4675 858.295 70.8958 858.037 70.404C857.778 69.8999 857.428 69.5065 856.985 69.2237C856.543 68.9409 855.989 68.7995 855.325 68.7995C854.674 68.7995 854.127 68.9409 853.684 69.2237C853.254 69.5065 852.909 69.8999 852.651 70.404C852.393 70.8958 852.209 71.4675 852.098 72.1192C851.987 72.7585 851.932 73.4409 851.932 74.1663Z" fill="#666D80"/>
<path d="M837.27 75.236H843.725C843.639 77.1048 843.135 78.7524 842.213 80.1786C841.291 81.6048 840.012 82.7175 838.377 83.5167C836.754 84.3036 834.836 84.697 832.623 84.697C830.828 84.697 829.223 84.3958 827.809 83.7933C826.407 83.1909 825.215 82.3241 824.231 81.1929C823.26 80.0618 822.516 78.6909 822 77.0802C821.496 75.4696 821.244 73.656 821.244 71.6396V70.1827C821.244 68.1663 821.508 66.3527 822.037 64.7421C822.578 63.1191 823.34 61.7421 824.323 60.6109C825.319 59.4675 826.512 58.5945 827.901 57.9921C829.291 57.3896 830.834 57.0884 832.53 57.0884C834.867 57.0884 836.84 57.5064 838.451 58.3425C840.061 59.1785 841.309 60.3281 842.194 61.7913C843.08 63.2421 843.602 64.8958 843.762 66.7523H837.307C837.282 65.7441 837.11 64.9019 836.791 64.2257C836.471 63.5372 835.967 63.0208 835.278 62.6765C834.59 62.3322 833.674 62.1601 832.53 62.1601C831.731 62.1601 831.037 62.3077 830.446 62.6027C829.856 62.8978 829.364 63.365 828.971 64.0044C828.578 64.6437 828.282 65.4736 828.086 66.4941C827.901 67.5023 827.809 68.7195 827.809 70.1458V71.6396C827.809 73.0659 827.895 74.2831 828.067 75.2913C828.239 76.2995 828.516 77.1233 828.897 77.7626C829.278 78.4019 829.77 78.8753 830.373 79.1827C830.987 79.4778 831.737 79.6253 832.623 79.6253C833.606 79.6253 834.436 79.4716 835.112 79.1642C835.789 78.8446 836.311 78.3651 836.68 77.7257C837.049 77.0741 837.246 76.2442 837.27 75.236Z" fill="#666D80"/>
<path fill-rule="evenodd" clip-rule="evenodd" d="M1043.33 56C1042.28 56 1041.42 56.8557 1041.42 57.9113C1041.42 61.4217 1044.27 64.2674 1047.78 64.2674H1051.39C1050.98 65.4819 1050.76 66.7823 1050.76 68.1344V82.9356C1050.76 86.6178 1053.74 89.6029 1057.42 89.6029C1061.11 89.6029 1064.09 86.6178 1064.09 82.9356V66.8898C1064.09 66.6198 1063.87 66.4009 1063.6 66.4009C1062.25 66.4009 1061.16 67.4954 1061.16 68.8455V82.9356C1061.16 84.9977 1059.49 86.6693 1057.42 86.6693C1055.36 86.6693 1053.69 84.9977 1053.69 82.9356V68.1344C1053.69 63.0529 1057.81 58.9336 1062.89 58.9336H1072.18C1071.71 60.4037 1070.33 61.4671 1068.7 61.4671H1062.73C1059.06 61.4671 1056.09 64.4413 1056.09 68.1101V82.1356C1056.09 82.9457 1056.75 83.6024 1057.56 83.6024C1058.37 83.6024 1059.02 82.9457 1059.02 82.1356V68.1101C1059.02 66.0615 1060.68 64.4007 1062.73 64.4007H1068.7C1072.34 64.4007 1075.29 61.4493 1075.29 57.8085C1075.29 56.8097 1074.48 56 1073.48 56H1062.89C1062.72 56 1062.56 56.0033 1062.4 56.0099C1062.34 56.0034 1062.28 56 1062.22 56H1043.33ZM1054.98 58.9336H1044.51C1044.95 60.3244 1046.24 61.3338 1047.78 61.3338H1052.84C1053.44 60.4418 1054.16 59.6345 1054.98 58.9336Z" fill="#666D80"/>
<path d="M1162.94 66.7319L1152.62 91.9377H1149.68L1153.06 83.6817L1146.15 66.7319H1149.31L1154.69 80.617L1160 66.7319H1162.94Z" fill="#666D80"/>
<path d="M1129.89 69.8907C1130.46 68.9108 1131.29 68.0977 1132.4 67.4514C1133.52 66.7843 1134.82 66.4507 1136.31 66.4507C1137.83 66.4507 1139.2 66.8155 1140.43 67.5452C1141.68 68.2749 1142.66 69.3069 1143.37 70.6412C1144.08 71.9547 1144.44 73.487 1144.44 75.2383C1144.44 76.9687 1144.08 78.5115 1143.37 79.8667C1142.66 81.2218 1141.68 82.2746 1140.43 83.0252C1139.2 83.7757 1137.83 84.151 1136.31 84.151C1134.85 84.151 1133.55 83.8279 1132.43 83.1816C1131.32 82.5144 1130.48 81.6909 1129.89 80.711V92.0004H1127.05V66.7321H1129.89V69.8907ZM1141.53 75.2383C1141.53 73.9457 1141.27 72.8199 1140.75 71.8609C1140.22 70.9018 1139.52 70.1721 1138.62 69.6718C1137.74 69.1714 1136.77 68.9212 1135.71 68.9212C1134.67 68.9212 1133.7 69.1818 1132.8 69.703C1131.93 70.2034 1131.22 70.9435 1130.68 71.9234C1130.15 72.8824 1129.89 73.9978 1129.89 75.2696C1129.89 76.5622 1130.15 77.6984 1130.68 78.6783C1131.22 79.6373 1131.93 80.3774 1132.8 80.8987C1133.7 81.399 1134.67 81.6492 1135.71 81.6492C1136.77 81.6492 1137.74 81.399 1138.62 80.8987C1139.52 80.3774 1140.22 79.6373 1140.75 78.6783C1141.27 77.6984 1141.53 76.5518 1141.53 75.2383Z" fill="#666D80"/>
<path d="M1120.82 63.9489C1120.28 63.9489 1119.82 63.7612 1119.45 63.3859C1119.07 63.0107 1118.88 62.552 1118.88 62.0099C1118.88 61.4679 1119.07 61.0092 1119.45 60.634C1119.82 60.2587 1120.28 60.071 1120.82 60.071C1121.34 60.071 1121.78 60.2587 1122.14 60.634C1122.51 61.0092 1122.7 61.4679 1122.7 62.0099C1122.7 62.552 1122.51 63.0107 1122.14 63.3859C1121.78 63.7612 1121.34 63.9489 1120.82 63.9489ZM1122.2 66.7321V83.8695H1119.35V66.7321H1122.2Z" fill="#666D80"/>
<path d="M1097.16 75.2383C1097.16 73.487 1097.51 71.9547 1098.22 70.6412C1098.93 69.3069 1099.9 68.2749 1101.13 67.5452C1102.38 66.8155 1103.76 66.4507 1105.29 66.4507C1106.79 66.4507 1108.09 66.7738 1109.2 67.4201C1110.3 68.0664 1111.12 68.8795 1111.67 69.8594V66.7321H1114.54V83.8696H1111.67V80.6797C1111.1 81.6805 1110.26 82.5144 1109.13 83.1816C1108.03 83.8279 1106.74 84.151 1105.26 84.151C1103.73 84.151 1102.36 83.7757 1101.13 83.0252C1099.9 82.2746 1098.93 81.2218 1098.22 79.8667C1097.51 78.5115 1097.16 76.9687 1097.16 75.2383ZM1111.67 75.2696C1111.67 73.977 1111.41 72.8512 1110.88 71.8921C1110.36 70.9331 1109.65 70.2034 1108.76 69.703C1107.88 69.1818 1106.91 68.9212 1105.85 68.9212C1104.79 68.9212 1103.82 69.1714 1102.94 69.6718C1102.07 70.1721 1101.37 70.9018 1100.85 71.8609C1100.32 72.8199 1100.06 73.9457 1100.06 75.2383C1100.06 76.5518 1100.32 77.6984 1100.85 78.6783C1101.37 79.6373 1102.07 80.3774 1102.94 80.8987C1103.82 81.399 1104.79 81.6492 1105.85 81.6492C1106.91 81.6492 1107.88 81.399 1108.76 80.8987C1109.65 80.3774 1110.36 79.6373 1110.88 78.6783C1111.41 77.6984 1111.67 76.5622 1111.67 75.2696Z" fill="#666D80"/>
<path d="M1094.72 62.0723V64.3864H1088.77V83.8693H1085.93V64.3864H1079.96V62.0723H1094.72Z" fill="#666D80"/>
<defs>
<clipPath id="clip0_407_297">
<rect width="207.969" height="36" fill="white" transform="translate(0.0576172 56.0002)"/>
</clipPath>
<clipPath id="clip1_407_297">
<rect width="155.25" height="36" fill="white" transform="translate(260.027 56.0002)"/>
</clipPath>
<clipPath id="clip2_407_297">
<rect width="118.717" height="36" fill="white" transform="translate(467.277 56.0002)"/>
</clipPath>
</defs>
</svg>
